<svg xmlns="http://www.w3.org/2000/svg" viewBox="0 0 200 200" width="100%" height="100%">
  <defs>
    <linearGradient id="bgElena" x1="0%" y1="0%" x2="100%" y2="100%">
      <stop offset="0%" stop-color="#EC4899"/>
      <stop offset="100%" stop-color="#BE185D"/>
    </linearGradient>
  </defs>
  <rect width="200" height="200" rx="100" fill="url(#bgElena)"/>
  <!-- Hair Behind -->
  <path d="M 50 80 C 45 130, 48 170, 65 185 Z" fill="#262626"/>
  <path d="M 150 80 C 155 130, 152 170, 135 185 Z" fill="#262626"/>
  <!-- Face -->
  <circle cx="100" cy="78" r="33" fill="#FFF1F2"/>
  <!-- Sleek Dark Bob -->
  <path d="M 64 72 C 60 40, 140 40, 136 72 C 140 95, 136 120, 130 130 C 120 100, 125 60, 100 60 C 75 60, 80 100, 70 130 C 64 120, 60 95, 64 72 Z" fill="#262626"/>
  <!-- Eyes & Coral Smile -->
  <circle cx="88" cy="78" r="3" fill="#262626"/>
  <circle cx="112" cy="78" r="3" fill="#262626"/>
  <path d="M 93 92 Q 100 98 107 92" fill="none" stroke="#E11D48" stroke-width="2.5" stroke-linecap="round"/>
  <!-- Modern Magenta / Dark Ensemble -->
  <path d="M 40 190 C 45 135, 155 135, 160 190 Z" fill="#4A044E"/>
  <polygon points="85,138 100,165 115,138" fill="#FCE7F3"/>
</svg>
